<svg version="1.0" xmlns="http://www.w3.org/2000/svg" xmlns:xlink="http://www.w3.org/1999/xlink" viewBox="0 0 340.000000 250.000000" preserveAspectRatio="xMidYMid meet" color-interpolation-filters="sRGB" style="margin: auto;">
    
    
    <gfill="#333333" class="endsvg" transform="translate(51.1134033203125,88.72312927246094)">
        <g class="tp-name" transform="translate(0,0)">
            <g>
                <rect data-gra="graph-name-bg" stroke-width="2" class="i-icon-bg" x="0" y="0" width="237.773193359375" height="54.730403900146484" fill-opacity="0"></rect> <!----> <!---->
            </g>
            <g transform="translate(0,0)">
                <g data-gra="path-name-bg">
                    <g>
                        <rect data-gra="graph-name-bg" stroke-width="2" class="i-icon-bg" x="0" y="0" width="163.15240478515625" height="54.730403900146484" fill-opacity="0"></rect> <!---->
                    </g>
                    <g transform="translate(5,5)">
                        <g data-gra="path-name">
                            <g transform="scale(0.9199999999999999)">
                                <path d="M38.28-45.26L39.29 0L23.42 0.76L23.30-13.90L16.00-13.90L15.55 0L1.33 0L2.54-44.62L17.65-43.93L16.69-21.14L23.74-21.14L23.80-45.64L38.28-45.26ZM81.54-22.41L81.54-22.41Q81.54-19.52 80.87-16.84Q80.20-14.16 78.95-11.81Q77.70-9.46 75.90-7.51Q74.11-5.55 71.87-4.16Q69.63-2.76 67.00-1.98Q64.37-1.21 61.41-1.21L61.41-1.21Q58.56-1.21 55.97-1.94Q53.38-2.67 51.13-3.98Q48.88-5.30 47.05-7.16Q45.23-9.01 43.94-11.28Q42.66-13.55 41.94-16.15Q41.23-18.76 41.23-21.58L41.23-21.58Q41.23-24.34 41.89-26.99Q42.56-29.64 43.81-31.99Q45.07-34.34 46.85-36.31Q48.62-38.28 50.83-39.70Q53.03-41.13 55.61-41.93Q58.18-42.72 61.03-42.72L61.03-42.72Q65.63-42.72 69.43-41.29Q73.22-39.86 75.90-37.21Q78.58-34.56 80.06-30.80Q81.54-27.04 81.54-22.41ZM67.44-21.58L67.44-21.58Q67.44-22.95 67.05-24.23Q66.65-25.52 65.89-26.52Q65.13-27.52 64.00-28.14Q62.87-28.75 61.41-28.75L61.41-28.75Q59.92-28.75 58.75-28.22Q57.57-27.68 56.73-26.74Q55.89-25.80 55.45-24.55Q55.00-23.30 55.00-21.90L55.00-21.90Q55.00-20.57 55.38-19.23Q55.76-17.90 56.53-16.82Q57.29-15.74 58.41-15.08Q59.54-14.41 61.03-14.41L61.03-14.41Q62.52-14.41 63.71-15.00Q64.90-15.58 65.73-16.58Q66.56-17.58 67.00-18.88Q67.44-20.19 67.44-21.58ZM111.94-45.00L126.92-45.51L124.64-2.48L108.01-0.95L99.12-23.99L97.72-0.51L83.44-0.51L84.58-45.51L100.45-46.27L111.43-23.42L111.94-45.00ZM167.42-27.80L167.80-6.47Q166.31-4.60 164.12-3.21Q161.93-1.81 159.42-0.89Q156.91 0.03 154.28 0.49Q151.65 0.95 149.27 0.95L149.27 0.95Q144.66 0.95 140.79-0.70Q136.92-2.35 134.11-5.25Q131.30-8.16 129.71-12.09Q128.13-16.03 128.13-20.57L128.13-20.57Q128.13-24.03 128.92-27.34Q129.71-30.66 131.19-33.59Q132.67-36.53 134.79-38.99Q136.92-41.45 139.62-43.23Q142.31-45.00 145.52-45.99Q148.73-46.97 152.38-46.97L152.38-46.97Q153.74-46.97 155.30-46.86Q156.85-46.75 158.39-46.48Q159.93-46.21 161.39-45.73Q162.85-45.26 164.06-44.56L164.06-44.56L163.17-32.44Q161.39-33.10 159.50-33.34Q157.61-33.58 155.80-33.58L155.80-33.58Q153.26-33.58 151.06-32.80Q148.85-32.02 147.22-30.56Q145.58-29.10 144.63-27.01Q143.68-24.91 143.68-22.28L143.68-22.28Q143.68-20.63 144.12-19.09Q144.57-17.55 145.47-16.36Q146.38-15.17 147.73-14.44Q149.07-13.71 150.85-13.71L150.85-13.71Q152.06-13.71 153.34-14.03Q154.63-14.35 155.55-15.11L155.55-15.11L155.68-17.58L148.06-17.71L148.44-27.23Q153.17-27.39 157.90-27.50Q162.63-27.61 167.42-27.80L167.42-27.80Z" transform="translate(-1.3330078125, 46.97265625)"></path>
                            </g>
                        </g>
                    </g>
                </g>
                <g data-gra="path-name-1-bg" transform="translate(163.15240478515625,0)" mask="url(#198542ae-aff8-4e98-ad80-9b881aa8c6b4)">
                    <g>
                        <rect data-gra="graph-name-bg" stroke-width="2" class="i-icon-bg" x="0" y="0" width="74.62079620361328" height="54.730403900146484" fill="#f1511b"></rect> <!----> <!---->
                    </g>
                    <g transform="translate(5,5)">
                        <g data-gra="path-name-1" fill="#f1511b">
                            <g transform="scale(0.9199999999999999)">
                                <path d="M25.87-46.72L41.86-45.45L26.56-24.31L39.45-1.84L24.72 0.76L15.08-12.95L14.57 1.40L1.36 1.90L2.38-46.72L17.17-45.89L16.03-31.55L25.87-46.72ZM42.34-45.77L71.60-45.77Q71.41-42.78 71.25-39.86Q71.09-36.94 70.84-33.96L70.84-33.96L57.38-33.26L57.07-29.26L66.52-29.26L65.83-19.42L56.30-19.11L55.99-14.47L63.86-14.47L69.44-14.47Q69.25-10.98 69.05-7.54Q68.84-4.09 68.68-0.63L68.68-0.63L41.32 0L42.34-45.77Z" transform="translate(-1.36474609375, 46.97265625)"></path>
                            </g>
                        </g>
                    </g>
                </g>
            </g>
        </g> <!----> <!----> <!----> <!----> <!---->
        <g data-gra="path-slogan" fill-rule="" class="tp-slogan" fill="#333333" transform="translate(96.57429695129395,58.730403900146484)"><!----> <!---->
            <g transform="scale(1, 1)">
                <g transform="scale(1.7800000000000007)">
                    <path d="M3.80-6.93L3.80-6.93Q3.90-6.90 4.03-6.87L4.03-6.87Q4.73-6.77 4.70-6.67L4.70-6.67Q4.70-6.63 4.63-6.57L4.63-6.57Q4.40-6.30 4.07-5.60L4.07-5.60L6.33-5.60Q7.67-5.60 8.07-5.67L8.07-5.67L8.07-4.90Q7.77-4.93 6.33-4.97L6.33-4.97L3.80-4.97Q3.43-4.33 2.73-3.37L2.73-3.37Q2.63-3.23 2.60-3.17L2.60-3.17L2.60-0.10Q2.63 0.87 2.63 0.83L2.63 0.83L1.83 0.83Q1.90 0.47 1.90-0.17L1.90-0.17L1.90-2.43Q1.13-1.67 0.77-1.40L0.77-1.40Q0.43-1.77 0.13-1.93L0.13-1.93Q1.07-2.50 1.90-3.30L1.90-3.30L1.87-3.87Q2.10-3.87 2.33-3.83L2.33-3.83Q2.67-4.20 3.07-4.97L3.07-4.97L2.33-4.97Q1.97-4.97 1.33-4.93L1.33-4.93Q0.90-4.93 0.73-4.93L0.73-4.93L0.73-5.70Q1.50-5.63 2.33-5.63L2.33-5.63L3.37-5.63Q3.67-6.23 3.80-6.93ZM4.90-4.40L4.90-4.40Q5.63-4.43 5.73-4.33L5.73-4.33Q5.73-4.27 5.70-4.13L5.70-4.13Q5.63-3.97 5.63-3.73L5.63-3.73L5.63-2.93L6.33-2.93Q6.73-2.93 7.67-2.97L7.67-2.97L7.67-2.23Q7.67-2.23 7.53-2.23L7.53-2.23Q6.60-2.30 6.33-2.30L6.33-2.30L5.63-2.30L5.63-0.23L6.47-0.23Q7.67-0.27 7.97-0.30L7.97-0.30L7.97 0.37Q7.87 0.37 7.50 0.37L7.50 0.37Q6.83 0.33 6.47 0.33L6.47 0.33L3.97 0.33Q3.33 0.33 2.80 0.40L2.80 0.40L2.80-0.30Q3.03-0.27 3.93-0.27L3.93-0.27Q4.57-0.23 4.97-0.23L4.97-0.23L4.97-2.30Q3.70-2.30 3.20-2.23L3.20-2.23L3.20-2.97Q4.00-2.93 4.97-2.93L4.97-2.93Q4.97-3.83 4.90-4.40ZM13.44-6.87L13.44-6.87Q14.34-6.73 14.34-6.67L14.34-6.67Q14.34-6.63 14.30-6.57L14.30-6.57Q14.07-6.33 13.84-5.90L13.84-5.90L15.00-5.90Q15.44-5.90 15.97-5.97L15.97-5.97Q16.17-5.97 16.17-5.97L16.17-5.97Q15.40-4.20 14.84-3.73L14.84-3.73Q15.70-3.23 16.80-3.13L16.80-3.13Q16.40-2.60 16.37-2.33L16.37-2.33Q15.10-2.73 14.37-3.33L14.37-3.33Q13.80-2.87 12.97-2.47L12.97-2.47Q13.30-2.40 13.54-2.40L13.54-2.40L15.10-2.40Q15.44-2.40 15.84-2.47L15.84-2.47Q15.80-2.00 15.80-1.70L15.80-1.70L15.80-0.30Q15.80 0.13 15.84 0.57L15.84 0.57L15.17 0.57L15.20 0L13.47 0L13.50 0.63L12.84 0.63Q12.87 0.20 12.87-0.27L12.87-0.27L12.87-1.73Q12.87-2.27 12.84-2.37L12.84-2.37Q12.77-2.33 12.67-2.30L12.67-2.30Q12.60-2.27 12.57-2.27L12.57-2.27Q12.44-2.57 12.04-2.83L12.04-2.83Q13.07-3.13 13.97-3.73L13.97-3.73Q13.50-4.30 13.34-4.90L13.34-4.90L12.84-4.00Q12.50-4.13 12.20-4.23L12.20-4.23Q13.14-5.57 13.44-6.87ZM11.47-4.20L11.47-5.63L10.17-5.63L10.17-4.20L11.47-4.20ZM15.24-5.33L13.64-5.33Q13.84-4.87 14.40-4.10L14.40-4.10Q14.84-4.53 15.24-5.33L15.24-5.33ZM15.20-1.83L13.47-1.83L13.47-0.53L15.20-0.53L15.20-1.83ZM12.17-2.67L12.17-2.67L12.17-1.97Q12.17-1.97 12.14-1.97L12.14-1.97Q11.97-2.03 11.50-2.03L11.50-2.03L11.20-2.03L11.20-0.67Q11.90-0.83 12.34-1.00L12.34-1.00L12.27-0.30Q9.97 0.13 9.13 0.43L9.13 0.43L8.93-0.30Q9.17-0.30 9.43-0.37L9.43-0.37L9.43-2.00Q9.43-2.50 9.37-2.93L9.37-2.93Q10.17-2.87 10.20-2.77L10.20-2.77Q10.20-2.73 10.17-2.63L10.17-2.63Q10.07-2.40 10.07-2.03L10.07-2.03L10.07-0.47L10.57-0.57L10.57-3.63L10.13-3.63Q9.90-3.63 9.50-3.60L9.50-3.60Q9.53-3.97 9.53-4.20L9.53-4.20L9.53-5.57L9.50-6.23Q10.03-6.20 10.27-6.20L10.27-6.20L11.40-6.20Q11.74-6.20 12.14-6.23L12.14-6.23Q12.10-5.83 12.10-5.60L12.10-5.60L12.10-4.33Q12.10-3.93 12.14-3.60L12.14-3.60Q11.80-3.63 11.54-3.63L11.54-3.63L11.20-3.63L11.20-2.63L11.50-2.63Q11.90-2.63 12.10-2.67L12.10-2.67Q12.17-2.67 12.17-2.67ZM20.64-6.70L20.64-6.70Q21.57-6.70 21.60-6.53L21.60-6.53Q21.60-6.47 21.57-6.40L21.57-6.40Q21.47-6.23 21.47-6.03L21.47-6.03L21.47-4.20L22.80-4.20Q23.60-4.20 24.47-4.27L24.47-4.27L24.47-3.50Q23.94-3.53 22.80-3.53L22.80-3.53L21.47-3.53L21.47-0.20L23.67-0.20Q24.84-0.20 25.20-0.23L25.20-0.23L25.20 0.47Q24.57 0.40 23.70 0.40L23.70 0.40L18.80 0.40Q18.14 0.40 17.47 0.47L17.47 0.47L17.47-0.27Q18.27-0.20 18.84-0.20L18.84-0.20L20.70-0.20L20.70-5.90Q20.70-6.43 20.64-6.70Z" transform="translate(-0.13335265980576896, 6.934338309899986)"></path>
                </g>
            </g>
        </g>
    </g>
    <mask id="198542ae-aff8-4e98-ad80-9b881aa8c6b4">
        <g fill="white">
            <rect data-gra="graph-name-bg" stroke-width="2" class="i-icon-bg" x="0" y="0" width="74.62079620361328" height="54.730403900146484"></rect>
        </g>
        <g transform="translate(5,5)" fill="black">
            <g data-gra="path-name-1">
                <g transform="scale(0.9199999999999999)">
                    <path d="M25.87-46.72L41.86-45.45L26.56-24.31L39.45-1.84L24.72 0.76L15.08-12.95L14.57 1.40L1.36 1.90L2.38-46.72L17.17-45.89L16.03-31.55L25.87-46.72ZM42.34-45.77L71.60-45.77Q71.41-42.78 71.25-39.86Q71.09-36.94 70.84-33.96L70.84-33.96L57.38-33.26L57.07-29.26L66.52-29.26L65.83-19.42L56.30-19.11L55.99-14.47L63.86-14.47L69.44-14.47Q69.25-10.98 69.05-7.54Q68.84-4.09 68.68-0.63L68.68-0.63L41.32 0L42.34-45.77Z" transform="translate(-1.36474609375, 46.97265625)"></path>
                </g>
            </g>
        </g>
    </mask>
    
</svg>